<mxfile host="app.diagrams.net" agent="Mozilla/5.0 (Windows NT 10.0; Win64; x64) AppleWebKit/537.36 (KHTML, like Gecko) Chrome/131.0.0.0 Safari/537.36 OPR/116.0.0.0 (Edition std-1)" version="26.0.14">
  <diagram name="Página-1" id="Olaqh4iCJXPnR79WVtrE">
    <mxGraphModel grid="1" page="1" gridSize="10" guides="1" tooltips="1" connect="1" arrows="1" fold="1" pageScale="1" pageWidth="827" pageHeight="1169" math="0" shadow="0">
      <root>
        <mxCell id="0" />
        <mxCell id="1" parent="0" />
        <mxCell id="jF4sGvZRIR_W0PO0tUiI-1" value="Calculadora" style="swimlane;fontStyle=1;align=center;verticalAlign=top;childLayout=stackLayout;horizontal=1;startSize=26;horizontalStack=0;resizeParent=1;resizeParentMax=0;resizeLast=0;collapsible=1;marginBottom=0;whiteSpace=wrap;html=1;" vertex="1" parent="1">
          <mxGeometry x="230" y="60" width="330" height="70" as="geometry" />
        </mxCell>
        <mxCell id="jF4sGvZRIR_W0PO0tUiI-2" value="&lt;span class=&quot;hljs-operator&quot;&gt;+&lt;/span&gt; operar(op: Operacion, n1: &lt;span class=&quot;hljs-keyword&quot;&gt;double&lt;/span&gt;, n2: &lt;span class=&quot;hljs-keyword&quot;&gt;double&lt;/span&gt;): &lt;span class=&quot;hljs-keyword&quot;&gt;double&lt;/span&gt;&lt;div&gt;&lt;span class=&quot;hljs-keyword&quot;&gt;&lt;span class=&quot;hljs-operator&quot;&gt;+&lt;/span&gt; mostrarResultado(resultado: &lt;span class=&quot;hljs-keyword&quot;&gt;double&lt;/span&gt;): void&lt;/span&gt;&lt;/div&gt;" style="text;strokeColor=none;fillColor=none;align=left;verticalAlign=top;spacingLeft=4;spacingRight=4;overflow=hidden;rotatable=0;points=[[0,0.5],[1,0.5]];portConstraint=eastwest;whiteSpace=wrap;html=1;" vertex="1" parent="jF4sGvZRIR_W0PO0tUiI-1">
          <mxGeometry y="26" width="330" height="44" as="geometry" />
        </mxCell>
        <mxCell id="jF4sGvZRIR_W0PO0tUiI-6" value="Suma" style="swimlane;fontStyle=1;align=center;verticalAlign=top;childLayout=stackLayout;horizontal=1;startSize=26;horizontalStack=0;resizeParent=1;resizeParentMax=0;resizeLast=0;collapsible=1;marginBottom=0;whiteSpace=wrap;html=1;" vertex="1" parent="1">
          <mxGeometry x="40" y="170" width="160" height="52" as="geometry" />
        </mxCell>
        <mxCell id="jF4sGvZRIR_W0PO0tUiI-7" value="+ sumar (n1 + n2)" style="text;strokeColor=none;fillColor=none;align=left;verticalAlign=top;spacingLeft=4;spacingRight=4;overflow=hidden;rotatable=0;points=[[0,0.5],[1,0.5]];portConstraint=eastwest;whiteSpace=wrap;html=1;" vertex="1" parent="jF4sGvZRIR_W0PO0tUiI-6">
          <mxGeometry y="26" width="160" height="26" as="geometry" />
        </mxCell>
        <mxCell id="jF4sGvZRIR_W0PO0tUiI-10" value="Multiplicación" style="swimlane;fontStyle=1;align=center;verticalAlign=top;childLayout=stackLayout;horizontal=1;startSize=26;horizontalStack=0;resizeParent=1;resizeParentMax=0;resizeLast=0;collapsible=1;marginBottom=0;whiteSpace=wrap;html=1;" vertex="1" parent="1">
          <mxGeometry x="200" y="290" width="160" height="52" as="geometry" />
        </mxCell>
        <mxCell id="jF4sGvZRIR_W0PO0tUiI-11" value="+ multiplicar (n1*n2)" style="text;strokeColor=none;fillColor=none;align=left;verticalAlign=top;spacingLeft=4;spacingRight=4;overflow=hidden;rotatable=0;points=[[0,0.5],[1,0.5]];portConstraint=eastwest;whiteSpace=wrap;html=1;" vertex="1" parent="jF4sGvZRIR_W0PO0tUiI-10">
          <mxGeometry y="26" width="160" height="26" as="geometry" />
        </mxCell>
        <mxCell id="jF4sGvZRIR_W0PO0tUiI-12" value="Resta" style="swimlane;fontStyle=1;align=center;verticalAlign=top;childLayout=stackLayout;horizontal=1;startSize=26;horizontalStack=0;resizeParent=1;resizeParentMax=0;resizeLast=0;collapsible=1;marginBottom=0;whiteSpace=wrap;html=1;" vertex="1" parent="1">
          <mxGeometry x="590" y="170" width="160" height="52" as="geometry" />
        </mxCell>
        <mxCell id="jF4sGvZRIR_W0PO0tUiI-13" value="+ restar (n1-n2)&lt;div&gt;&lt;br/&gt;&lt;/div&gt;" style="text;strokeColor=none;fillColor=none;align=left;verticalAlign=top;spacingLeft=4;spacingRight=4;overflow=hidden;rotatable=0;points=[[0,0.5],[1,0.5]];portConstraint=eastwest;whiteSpace=wrap;html=1;" vertex="1" parent="jF4sGvZRIR_W0PO0tUiI-12">
          <mxGeometry y="26" width="160" height="26" as="geometry" />
        </mxCell>
        <mxCell id="jF4sGvZRIR_W0PO0tUiI-14" value="División" style="swimlane;fontStyle=1;align=center;verticalAlign=top;childLayout=stackLayout;horizontal=1;startSize=26;horizontalStack=0;resizeParent=1;resizeParentMax=0;resizeLast=0;collapsible=1;marginBottom=0;whiteSpace=wrap;html=1;" vertex="1" parent="1">
          <mxGeometry x="414" y="290" width="160" height="52" as="geometry" />
        </mxCell>
        <mxCell id="jF4sGvZRIR_W0PO0tUiI-15" value="+ dividir (n1/n2)" style="text;strokeColor=none;fillColor=none;align=left;verticalAlign=top;spacingLeft=4;spacingRight=4;overflow=hidden;rotatable=0;points=[[0,0.5],[1,0.5]];portConstraint=eastwest;whiteSpace=wrap;html=1;" vertex="1" parent="jF4sGvZRIR_W0PO0tUiI-14">
          <mxGeometry y="26" width="160" height="26" as="geometry" />
        </mxCell>
        <mxCell id="jF4sGvZRIR_W0PO0tUiI-16" value="" style="endArrow=open;html=1;endSize=12;startArrow=diamondThin;startSize=14;startFill=1;align=left;verticalAlign=bottom;rounded=0;exitX=0.069;exitY=0.989;exitDx=0;exitDy=0;exitPerimeter=0;entryX=1;entryY=0.5;entryDx=0;entryDy=0;" edge="1" parent="1" source="jF4sGvZRIR_W0PO0tUiI-2" target="jF4sGvZRIR_W0PO0tUiI-7">
          <mxGeometry x="-1" y="3" relative="1" as="geometry">
            <mxPoint x="330" y="210" as="sourcePoint" />
            <mxPoint x="490" y="210" as="targetPoint" />
          </mxGeometry>
        </mxCell>
        <mxCell id="jF4sGvZRIR_W0PO0tUiI-17" value="" style="endArrow=open;html=1;endSize=12;startArrow=diamondThin;startSize=14;startFill=1;align=left;verticalAlign=bottom;rounded=0;exitX=0.242;exitY=1.083;exitDx=0;exitDy=0;exitPerimeter=0;entryX=0.563;entryY=0;entryDx=0;entryDy=0;entryPerimeter=0;" edge="1" parent="1" source="jF4sGvZRIR_W0PO0tUiI-2" target="jF4sGvZRIR_W0PO0tUiI-10">
          <mxGeometry x="-1" y="3" relative="1" as="geometry">
            <mxPoint x="376" y="190" as="sourcePoint" />
            <mxPoint x="340" y="254" as="targetPoint" />
          </mxGeometry>
        </mxCell>
        <mxCell id="jF4sGvZRIR_W0PO0tUiI-20" value="" style="endArrow=open;html=1;endSize=12;startArrow=diamondThin;startSize=14;startFill=1;align=left;verticalAlign=bottom;rounded=0;entryX=1;entryY=0.5;entryDx=0;entryDy=0;exitX=0.653;exitY=1.064;exitDx=0;exitDy=0;exitPerimeter=0;" edge="1" parent="1" source="jF4sGvZRIR_W0PO0tUiI-2">
          <mxGeometry x="-0.2998" y="-8" relative="1" as="geometry">
            <mxPoint x="490" y="221" as="sourcePoint" />
            <mxPoint x="460" y="284" as="targetPoint" />
            <mxPoint as="offset" />
          </mxGeometry>
        </mxCell>
        <mxCell id="jF4sGvZRIR_W0PO0tUiI-21" value="" style="endArrow=open;html=1;endSize=12;startArrow=diamondThin;startSize=14;startFill=1;align=left;verticalAlign=bottom;rounded=0;exitX=0.936;exitY=1.006;exitDx=0;exitDy=0;exitPerimeter=0;entryX=-0.01;entryY=0.178;entryDx=0;entryDy=0;entryPerimeter=0;" edge="1" parent="1" source="jF4sGvZRIR_W0PO0tUiI-2" target="jF4sGvZRIR_W0PO0tUiI-13">
          <mxGeometry x="-1" y="3" relative="1" as="geometry">
            <mxPoint x="556" y="190" as="sourcePoint" />
            <mxPoint x="520" y="254" as="targetPoint" />
          </mxGeometry>
        </mxCell>
      </root>
    </mxGraphModel>
  </diagram>
</mxfile>
